<?xml version="1.0" standalone="no"?>
<!DOCTYPE svg PUBLIC "-//W3C//DTD SVG 20010904//EN"
 "http://www.w3.org/TR/2001/REC-SVG-20010904/DTD/svg10.dtd">
<svg version="1.0" xmlns="http://www.w3.org/2000/svg"
 width="512.000000pt" height="512.000000pt" viewBox="0 0 512.000000 512.000000"
 preserveAspectRatio="xMidYMid meet">
<metadata>
Created by potrace 1.15, written by Peter Selinger 2001-2017
</metadata>
<g transform="translate(0.000000,512.000000) scale(0.100000,-0.100000)"
fill="#000000" stroke="none">
<path d="M203 4958 c-174 -172 -196 -198 -191 -231 3 -19 32 5 192 163 103
102 192 193 197 203 8 14 5 17 -17 17 -21 0 -60 -33 -181 -152z"/>
<path d="M303 4858 c-140 -139 -264 -265 -275 -281 -10 -15 -18 -37 -16 -50 3
-18 49 23 292 263 158 157 292 293 297 303 8 14 5 17 -17 17 -22 0 -75 -47
-281 -252z"/>
<path d="M402 4758 c-194 -194 -362 -365 -373 -381 -11 -15 -19 -37 -17 -50 4
-18 67 40 392 363 213 212 392 393 397 403 8 14 5 17 -18 17 -22 0 -89 -62
-381 -352z"/>
<path d="M502 4658 c-249 -249 -462 -465 -473 -481 -11 -15 -19 -37 -17 -50 4
-18 84 57 492 463 268 267 492 493 497 503 8 14 5 17 -18 17 -22 0 -104 -76
-481 -452z"/>
<path d="M602 4558 c-304 -304 -562 -565 -573 -581 -11 -15 -19 -37 -17 -50 4
-18 101 75 592 563 323 322 592 593 597 603 8 14 5 17 -18 17 -23 0 -118 -91
-581 -552z"/>
<path d="M702 4458 c-359 -359 -662 -665 -673 -681 -11 -15 -19 -37 -17 -50 4
-18 118 92 692 663 378 377 692 693 697 703 8 14 5 17 -18 17 -23 0 -133 -106
-681 -652z"/>
<path d="M802 4358 c-414 -414 -762 -765 -773 -781 -11 -15 -19 -37 -17 -50 4
-18 136 109 792 763 433 432 792 793 797 803 8 14 5 17 -18 17 -23 0 -148
-120 -781 -752z"/>
<path d="M902 4258 c-469 -469 -862 -865 -873 -881 -11 -15 -19 -37 -17 -50 4
-18 153 126 892 863 488 487 892 893 897 903 8 14 5 17 -18 17 -23 0 -162
-135 -881 -852z"/>
<path d="M1002 4158 c-524 -524 -962 -965 -973 -981 -11 -15 -19 -37 -17 -50
4 -18 170 144 992 963 543 542 992 993 997 1003 8 14 5 17 -18 17 -23 0 -177
-149 -981 -952z"/>
<path d="M1102 4058 c-579 -579 -1062 -1065 -1073 -1081 -11 -15 -19 -37 -17
-50 4 -18 188 161 1092 1063 598 597 1092 1093 1097 1103 8 14 5 17 -18 17
-23 0 -191 -164 -1081 -1052z"/>
<path d="M1202 3958 c-634 -634 -1162 -1165 -1173 -1181 -11 -15 -19 -37 -17
-50 4 -18 205 178 1192 1163 653 652 1192 1193 1197 1203 8 14 5 17 -18 17
-23 0 -206 -178 -1181 -1152z"/>
<path d="M2100 4656 c-396 -395 -465 -459 -535 -500 -255 -150 -519 -414 -645
-646 -29 -54 -111 -142 -473 -506 -359 -361 -437 -445 -437 -467 0 -15 3 -27
7 -27 4 0 183 174 397 388 214 213 385 378 381 367 -4 -11 -20 -56 -36 -99
l-28 -79 -360 -362 c-296 -296 -361 -366 -361 -388 0 -15 3 -27 7 -27 4 0 161
153 348 340 l341 341 -15 -80 -16 -80 -332 -334 c-272 -272 -333 -338 -333
-360 0 -15 3 -27 7 -27 4 0 152 145 329 321 l322 321 -5 -68 -5 -69 -324 -326
c-264 -265 -324 -330 -324 -352 0 -15 3 -27 7 -27 4 0 150 143 325 317 l318
318 0 -65 0 -64 -325 -326 c-265 -266 -325 -331 -325 -353 0 -15 3 -27 7 -27
4 0 152 144 329 321 l321 321 7 -32 c15 -78 25 -65 -329 -420 -274 -275 -335
-341 -335 -363 0 -15 3 -27 7 -27 4 0 159 151 343 335 l336 336 12 -52 13 -53
-356 -356 c-293 -294 -355 -361 -355 -383 0 -23 3 -26 18 -18 9 5 172 165 362
355 l345 346 16 -47 17 -48 -379 -381 c-311 -312 -379 -385 -379 -407 0 -15 3
-27 7 -27 4 0 179 172 389 381 l382 382 20 -44 19 -44 -408 -411 c-336 -337
-409 -415 -409 -437 0 -15 3 -27 7 -27 4 0 193 185 419 411 l411 411 22 -35
c11 -19 21 -38 21 -43 0 -5 -198 -207 -440 -449 -363 -364 -440 -446 -440
-468 0 -15 3 -27 7 -27 4 0 209 201 455 447 246 246 449 445 452 443 2 -3 13
-21 25 -40 l21 -35 -480 -480 c-397 -397 -480 -486 -480 -508 0 -15 3 -27 7
-27 4 0 227 219 495 487 465 465 488 486 503 468 44 -57 77 -18 -484 -579
-435 -435 -521 -526 -521 -549 0 -23 3 -26 18 -18 9 5 251 244 537 530 l519
520 28 -26 c15 -15 28 -31 28 -37 0 -6 -254 -265 -565 -576 -469 -469 -565
-570 -565 -593 0 -15 3 -27 7 -27 4 0 268 260 585 577 l578 578 32 -33 33 -32
-593 -593 c-325 -326 -592 -596 -592 -600 0 -4 12 -7 27 -7 23 0 127 99 613
584 l585 585 34 -31 34 -30 -547 -547 c-300 -300 -546 -550 -546 -554 0 -4 12
-7 27 -7 23 0 120 92 568 540 l540 539 37 -28 37 -27 -495 -495 c-272 -272
-500 -502 -505 -511 -8 -15 -5 -18 18 -18 23 0 110 82 523 495 272 272 499
495 504 495 5 0 24 -10 43 -21 l35 -22 -466 -466 c-256 -257 -466 -470 -466
-474 0 -4 12 -7 27 -7 22 0 108 80 489 461 l461 461 43 -22 43 -22 -432 -432
c-237 -237 -431 -435 -431 -439 0 -4 12 -7 27 -7 22 0 103 76 458 429 l430
429 44 -19 45 -20 -402 -402 c-221 -222 -402 -406 -402 -410 0 -4 12 -7 27 -7
22 0 99 71 429 401 l402 401 38 -12 c22 -7 43 -15 48 -18 4 -2 -161 -174 -368
-381 -207 -207 -376 -380 -376 -384 0 -4 12 -7 27 -7 22 0 96 68 407 378 l381
378 52 -11 53 -10 -351 -350 c-192 -193 -355 -358 -360 -367 -8 -15 -5 -18 18
-18 22 0 90 63 388 360 381 381 367 369 445 354 l32 -7 -346 -346 c-190 -191
-346 -350 -346 -354 0 -4 12 -7 27 -7 22 0 92 65 384 356 l357 357 46 -7 46
-7 0 53 c0 50 3 57 40 93 l40 39 0 -65 0 -64 -361 -360 c-198 -198 -365 -368
-370 -377 -8 -15 -5 -18 18 -18 22 0 89 62 380 352 l353 352 67 4 68 4 -347
-349 c-192 -192 -348 -352 -348 -356 0 -4 12 -7 27 -7 22 0 92 65 387 359 330
328 364 359 401 365 22 3 56 8 75 12 31 6 -3 -32 -327 -358 -200 -200 -363
-367 -363 -371 0 -4 12 -7 27 -7 22 0 95 68 409 381 l382 382 89 28 c48 16 90
29 93 29 2 0 -176 -181 -398 -403 -221 -221 -402 -406 -402 -410 0 -4 12 -7
27 -7 22 0 105 77 468 439 398 397 447 442 513 476 40 21 110 62 155 92 76 50
42 14 -440 -469 -288 -288 -523 -527 -523 -531 0 -4 12 -7 27 -7 23 0 218 190
1211 1182 651 651 1192 1195 1203 1211 11 15 19 37 17 50 -4 18 -86 -60 -507
-478 -484 -481 -501 -497 -448 -415 30 47 69 114 87 150 29 56 92 124 452 486
344 345 418 425 418 447 0 15 -3 27 -7 27 -4 0 -179 -172 -389 -381 l-382
-382 32 97 32 96 357 358 c292 293 357 363 357 385 0 15 -3 27 -7 27 -4 0
-161 -153 -348 -341 l-341 -340 13 78 13 78 335 335 c274 275 335 341 335 363
0 15 -3 27 -7 27 -4 0 -153 -145 -330 -322 l-323 -323 0 65 0 64 330 331 c269
270 330 336 330 358 0 15 -3 27 -7 27 -4 0 -152 -145 -329 -321 l-322 -322 -4
59 -4 59 333 336 c274 275 333 340 333 362 0 23 -3 26 -17 18 -10 -5 -160
-152 -333 -325 -173 -174 -318 -316 -321 -316 -3 0 -9 24 -12 52 l-7 53 345
345 c282 283 345 351 345 373 0 15 -3 27 -7 27 -4 0 -161 -154 -350 -342 -188
-188 -344 -340 -346 -337 -2 2 -9 24 -15 49 l-11 45 364 366 c301 301 365 370
365 392 0 23 -3 26 -17 18 -10 -5 -178 -170 -373 -365 l-354 -355 -18 47 -18
47 390 390 c320 321 390 396 390 418 0 15 -3 27 -7 27 -4 0 -184 -176 -399
-391 l-392 -392 -22 43 -22 43 421 421 c349 350 421 427 421 449 0 23 -3 26
-17 18 -10 -5 -205 -197 -433 -425 l-415 -416 -22 43 -22 42 455 455 c374 376
454 461 454 483 0 15 -3 27 -7 27 -4 0 -215 -207 -468 -460 l-461 -461 -26 38
-25 38 494 495 c407 410 493 501 493 523 0 15 -3 27 -7 27 -4 0 -233 -225
-509 -501 l-501 -500 -28 36 -28 37 537 537 c444 445 536 541 536 564 0 15 -3
27 -7 27 -4 0 -253 -246 -554 -546 l-546 -546 -28 37 -28 36 581 582 c483 484
582 587 582 610 0 15 -3 27 -7 27 -4 0 -274 -267 -600 -592 l-593 -593 -32 33
-33 32 578 578 c317 317 577 581 577 585 0 4 -12 7 -27 7 -23 0 -124 -97 -598
-570 l-570 -569 -35 29 -35 29 533 533 c292 294 532 537 532 541 0 4 -12 7
-27 7 -23 0 -118 -90 -554 -526 l-527 -527 -37 28 -36 28 490 491 c270 271
491 495 491 499 0 4 -12 7 -27 7 -22 0 -111 -84 -513 -486 l-487 -485 -36 21
c-21 12 -37 25 -37 29 0 3 198 204 441 446 242 242 445 448 450 458 8 14 5 17
-18 17 -22 0 -103 -76 -478 -449 l-450 -450 -42 22 -43 22 411 410 c226 226
415 418 420 428 8 14 5 17 -18 17 -22 0 -98 -71 -443 -415 -228 -228 -420
-415 -427 -415 -6 0 -28 7 -48 16 l-38 16 391 392 c216 215 392 395 392 399 0
4 -12 7 -27 7 -22 0 -97 -70 -419 -391 l-391 -391 -44 13 c-24 7 -46 14 -48
16 -3 2 160 169 362 371 202 202 367 371 367 375 0 4 -12 7 -27 7 -22 0 -94
-67 -397 -369 l-371 -370 -53 11 -54 11 351 351 c193 194 351 355 351 359 0 4
-12 7 -27 7 -22 0 -91 -64 -382 -355 l-356 -354 -58 6 -59 6 341 341 c188 188
341 345 341 349 0 4 -12 7 -27 7 -22 0 -91 -64 -377 -349 -321 -320 -353 -349
-378 -344 -26 5 -28 3 -28 -29 0 -26 -9 -43 -40 -73 l-40 -39 0 65 0 64 336
335 c184 184 340 343 345 353 8 14 5 17 -18 17 -22 0 -88 -61 -378 -350 l-351
-350 -64 0 -65 0 343 343 c188 188 342 346 342 350 0 4 -12 7 -27 7 -22 0 -92
-65 -384 -356 l-356 -356 -74 -14 c-41 -8 -76 -14 -79 -14 -2 0 158 163 358
363 199 199 362 366 362 370 0 4 -12 7 -27 7 -22 0 -96 -69 -412 -384 l-386
-385 -100 -35 -99 -36 412 413 c226 227 412 416 412 420 0 4 -12 7 -27 7 -22
0 -107 -80 -483 -454z m913 -439 l38 -12 -151 -150 -150 -150 0 65 0 65 97 97
c54 54 104 98 113 97 8 0 32 -6 53 -12z m160 -51 l27 -11 -225 -225 -225 -225
0 65 0 65 177 177 c188 189 178 182 246 154z m159 -65 c4 -3 -125 -139 -287
-301 l-295 -295 0 65 0 65 251 251 252 252 36 -15 c20 -8 39 -18 43 -22z m105
-52 l35 -22 -358 -359 -359 -358 -3 62 -3 62 318 318 c175 175 322 318 327
318 5 0 24 -10 43 -21z m118 -71 c19 -13 35 -25 35 -28 0 -3 -189 -194 -420
-425 l-420 -420 0 65 0 65 382 382 c211 211 384 383 386 383 1 0 18 -10 37
-22z m142 -114 c2 -5 -211 -223 -472 -484 l-475 -475 0 65 0 65 442 442 442
442 30 -23 c16 -12 31 -27 33 -32z m-414 -626 l-528 -528 -3 62 -3 62 498 498
497 498 34 -32 33 -32 -528 -528z m617 424 c0 -4 -259 -266 -575 -582 l-575
-575 0 65 0 65 548 548 547 548 28 -31 c15 -17 27 -34 27 -38z m90 -110 c0 -4
-279 -286 -620 -627 l-620 -620 0 65 0 65 593 593 592 593 28 -31 c15 -17 27
-34 27 -38z m61 -88 l22 -36 -659 -659 -659 -659 -3 62 -3 62 633 633 c348
348 636 633 640 633 3 0 16 -16 29 -36z m74 -130 l17 -37 -693 -693 -694 -694
-3 62 -3 62 672 672 c370 370 676 671 680 669 3 -3 14 -21 24 -41z m74 -169
c1 -6 -325 -336 -724 -735 l-725 -725 0 65 0 65 708 708 707 707 17 -37 c9
-21 17 -43 17 -48z m40 -112 l12 -47 -748 -748 -748 -748 -3 62 -3 62 733 733
c403 403 736 733 739 733 4 0 12 -21 18 -47z m-717 -976 l-767 -767 -3 62 -3
62 758 758 758 758 12 -52 12 -53 -767 -768z m12 -188 l-779 -779 -3 62 -3 62
773 773 773 773 9 -56 9 -56 -779 -779z m-1 -201 l-778 -778 -3 62 -3 62 778
778 778 778 3 -62 3 -62 -778 -778z m758 605 l-11 -58 -677 -677 -676 -676
-56 -7 c-31 -3 -65 -9 -76 -12 -11 -2 322 338 740 756 444 444 761 755 763
747 2 -8 -2 -41 -7 -73z m-57 -244 l-26 -84 -499 -501 -500 -500 -83 -27 c-45
-15 -86 -27 -92 -27 -5 0 268 277 606 615 338 338 615 613 617 611 1 -1 -9
-40 -23 -87z m-134 -306 c-73 -138 -165 -255 -313 -400 -141 -138 -243 -214
-382 -288 -69 -37 -63 -30 330 364 220 220 401 401 403 401 2 0 -15 -35 -38
-77z"/>
<path d="M3996 1150 c-614 -613 -1122 -1123 -1127 -1132 -8 -15 -5 -18 18 -18
23 0 196 168 1111 1082 596 596 1092 1095 1103 1111 11 15 19 37 17 50 -4 18
-193 -166 -1122 -1093z"/>
<path d="M4096 1050 c-559 -558 -1022 -1023 -1027 -1033 -8 -14 -5 -17 18 -17
23 0 181 153 1011 983 541 540 992 994 1003 1010 11 15 19 37 17 50 -4 18
-175 -149 -1022 -993z"/>
<path d="M4196 950 c-504 -503 -922 -923 -927 -932 -8 -15 -5 -18 18 -18 23 0
167 139 911 882 486 486 892 895 903 911 11 15 19 37 17 50 -4 18 -158 -132
-922 -893z"/>
<path d="M4296 850 c-449 -448 -822 -823 -827 -832 -8 -15 -5 -18 18 -18 23 0
152 124 811 783 431 430 792 794 803 810 11 15 19 37 17 50 -4 18 -141 -114
-822 -793z"/>
<path d="M4396 750 c-394 -393 -722 -723 -727 -732 -8 -15 -5 -18 18 -18 23 0
137 110 711 683 376 375 692 694 703 710 11 15 19 37 17 50 -4 18 -124 -97
-722 -693z"/>
<path d="M4496 650 c-339 -338 -622 -623 -627 -632 -8 -15 -5 -18 18 -18 23 0
123 95 611 583 321 320 592 594 603 610 11 15 19 37 17 50 -4 18 -106 -80
-622 -593z"/>
<path d="M4596 550 c-284 -283 -522 -523 -527 -533 -8 -14 -5 -17 18 -17 23 0
108 81 511 483 266 265 492 494 503 510 11 15 19 37 17 50 -4 18 -89 -62 -522
-493z"/>
<path d="M4696 450 c-229 -228 -422 -423 -427 -432 -8 -15 -5 -18 18 -18 22 0
93 66 411 383 211 210 392 394 403 410 11 15 19 37 17 50 -4 18 -72 -45 -422
-393z"/>
<path d="M4796 350 c-174 -173 -322 -323 -327 -332 -8 -15 -5 -18 17 -18 23 0
80 52 312 282 156 156 293 295 303 311 11 15 19 37 17 50 -4 18 -54 -28 -322
-293z"/>
<path d="M4896 250 c-119 -118 -222 -223 -227 -232 -8 -15 -5 -18 17 -18 21 0
65 37 211 183 205 202 226 227 221 260 -3 19 -37 -11 -222 -193z"/>
<path d="M4996 150 c-136 -133 -149 -150 -111 -150 18 0 49 23 111 82 102 98
127 130 122 161 -3 19 -19 7 -122 -93z"/>
</g>
</svg>
