<?xml version="1.0" standalone="no"?>
<!DOCTYPE svg PUBLIC "-//W3C//DTD SVG 20010904//EN"
 "http://www.w3.org/TR/2001/REC-SVG-20010904/DTD/svg10.dtd">
<svg version="1.0" xmlns="http://www.w3.org/2000/svg"
 width="512.000000pt" height="512.000000pt" viewBox="0 0 512.000000 512.000000"
 preserveAspectRatio="xMidYMid meet">
<metadata>
Created by potrace 1.15, written by Peter Selinger 2001-2017
</metadata>
<g transform="translate(0.000000,512.000000) scale(0.100000,-0.100000)"
fill="#000000" stroke="none">
<path d="M2240 4875 c-58 -7 -142 -20 -188 -29 -45 -10 -92 -14 -105 -11 -16
4 -18 4 -8 -3 10 -7 5 -12 -20 -17 -19 -4 -76 -20 -127 -37 -51 -16 -97 -26
-104 -22 -6 4 -8 3 -5 -2 6 -11 -156 -86 -190 -88 -11 0 -19 -4 -17 -7 2 -3
-8 -11 -22 -18 -17 -7 -23 -8 -19 0 4 6 -11 1 -34 -10 -23 -12 -41 -24 -41
-26 0 -3 14 1 30 10 17 9 30 13 30 10 0 -2 -18 -14 -41 -26 -23 -11 -38 -15
-34 -9 6 9 2 9 -14 1 -11 -7 -21 -14 -21 -17 0 -3 5 -2 10 1 6 3 10 4 10 1 0
-3 -10 -10 -21 -17 -16 -8 -20 -8 -14 1 6 9 2 9 -14 1 -11 -7 -21 -14 -21 -17
0 -3 6 -2 13 1 6 4 1 -3 -13 -14 -14 -11 -30 -19 -37 -16 -7 2 -15 -1 -19 -7
-5 -7 -2 -8 6 -3 9 6 11 4 6 -4 -5 -7 -14 -10 -22 -7 -7 3 -16 0 -20 -6 -4 -7
-3 -8 4 -4 25 15 10 -3 -15 -20 -27 -17 -28 -17 -13 1 8 11 -7 4 -33 -15 -26
-19 -53 -41 -60 -50 -6 -8 0 -6 13 5 l25 20 -19 -23 c-11 -12 -25 -21 -32 -18
-7 3 -20 -5 -31 -17 l-18 -22 25 20 25 20 -19 -23 c-11 -12 -25 -21 -32 -18
-6 2 -25 -10 -40 -27 l-29 -32 35 30 c31 26 31 25 -5 -12 -22 -22 -44 -38 -50
-36 -5 3 357 -362 805 -811 448 -449 817 -816 820 -816 3 0 -360 366 -805 813
l-810 812 817 -814 c449 -448 815 -817 813 -820 -2 -5 2281 -7 2308 -2 11 2 9
64 -7 192 -20 155 -59 328 -108 468 -22 64 -41 126 -42 138 0 11 -4 19 -7 17
-11 -6 -32 54 -23 67 5 8 3 9 -6 4 -10 -6 -12 -4 -7 9 5 11 3 15 -5 10 -8 -5
-9 -2 -5 10 5 11 3 15 -5 10 -8 -5 -9 -2 -5 10 5 11 3 15 -5 10 -8 -5 -9 -2
-5 10 5 11 3 15 -5 10 -8 -5 -9 -2 -5 10 5 11 3 15 -5 10 -8 -5 -9 -2 -5 10 5
11 3 15 -5 10 -8 -5 -9 -2 -5 10 5 11 3 15 -5 10 -8 -5 -9 -2 -5 10 4 10 3 15
-3 11 -11 -7 -43 52 -35 65 3 5 0 12 -6 16 -8 5 -10 2 -5 -7 4 -8 0 -5 -8 6
-9 11 -14 25 -12 32 3 7 0 15 -6 19 -7 5 -8 2 -3 -6 6 -9 4 -11 -4 -6 -7 5
-10 14 -7 22 3 7 0 16 -6 20 -7 5 -8 2 -3 -6 6 -9 4 -11 -4 -6 -7 5 -10 14 -7
22 3 7 0 16 -6 20 -7 5 -8 2 -3 -6 6 -9 4 -11 -4 -6 -7 5 -10 14 -7 22 3 7 0
16 -6 20 -7 5 -8 2 -3 -7 8 -12 6 -12 -9 0 -9 8 -15 20 -12 27 3 7 0 16 -6 20
-7 5 -8 2 -3 -6 6 -9 4 -11 -4 -6 -7 5 -10 14 -7 21 3 8 -3 19 -12 27 -16 12
-16 11 -2 -7 15 -20 15 -20 -8 -1 -12 11 -21 25 -18 32 3 7 -3 18 -12 26 -16
12 -16 11 -2 -7 15 -20 15 -20 -8 -1 -12 11 -21 25 -18 32 2 6 -10 25 -27 40
l-32 29 25 -30 c23 -28 22 -28 -8 2 -18 19 -31 37 -28 42 3 4 -32 43 -77 87
l-82 79 75 -81 c41 -44 26 -31 -33 30 -60 61 -114 110 -121 108 -7 -1 -21 8
-32 20 l-19 23 25 -20 25 -20 -18 22 c-11 12 -24 19 -31 17 -7 -3 -19 3 -27
13 -13 17 -13 17 6 3 18 -14 19 -14 7 2 -8 9 -19 15 -26 12 -7 -3 -19 3 -27
13 -13 17 -13 17 6 3 18 -14 19 -14 7 2 -8 9 -19 15 -26 12 -7 -3 -19 3 -27
13 -13 16 -12 17 4 4 9 -7 17 -11 17 -8 0 6 -100 76 -130 91 -8 4 -4 -2 10
-14 18 -15 20 -19 5 -11 -11 5 -29 17 -40 26 -11 9 -14 14 -7 10 21 -11 13 4
-9 16 -16 8 -20 8 -14 -1 4 -6 -11 -2 -34 9 -23 12 -41 24 -41 26 0 3 14 -1
30 -10 17 -9 30 -13 30 -11 0 11 -55 33 -69 28 -8 -3 -11 0 -7 7 5 7 1 9 -10
4 -12 -4 -15 -3 -10 5 5 8 1 10 -10 5 -12 -4 -15 -3 -10 5 5 8 1 10 -10 5 -12
-4 -15 -3 -10 5 5 8 1 10 -10 5 -12 -4 -15 -3 -10 5 5 8 1 10 -10 5 -13 -5
-15 -3 -9 7 5 9 4 11 -4 6 -16 -10 -73 13 -64 27 3 6 1 7 -5 3 -7 -4 -55 9
-107 29 -53 19 -132 45 -176 57 -53 14 -75 24 -67 30 8 5 4 6 -12 3 -14 -3
-59 1 -100 10 -207 44 -514 56 -730 30z"/>
<path d="M790 4101 c-20 -21 -24 -24 -10 -6 l25 30 -32 -29 c-17 -15 -29 -34
-27 -40 3 -7 -6 -21 -18 -32 l-23 -19 20 25 20 25 -22 -18 c-12 -11 -19 -24
-17 -31 3 -7 -3 -19 -12 -27 -15 -12 -17 -12 -9 0 5 10 4 12 -3 7 -7 -4 -12
-16 -12 -26 0 -10 -5 -22 -12 -26 -7 -5 -8 -3 -3 6 6 9 4 11 -4 6 -7 -5 -10
-14 -7 -21 3 -8 -3 -19 -12 -27 -11 -9 -14 -10 -8 0 15 24 -2 11 -20 -15 -17
-27 -17 -28 1 -13 18 15 18 14 1 -12 -17 -26 -35 -41 -20 -16 4 7 3 8 -4 4 -6
-4 -9 -13 -6 -20 3 -8 0 -17 -7 -22 -8 -5 -10 -3 -4 6 5 8 4 11 -3 6 -6 -4 -9
-12 -6 -19 2 -7 -3 -21 -12 -32 -8 -11 -12 -14 -8 -6 4 9 3 12 -4 7 -6 -4 -9
-12 -6 -19 2 -7 -3 -21 -12 -32 -8 -11 -12 -14 -8 -6 4 9 3 12 -4 7 -6 -4 -8
-14 -5 -23 4 -11 3 -14 -5 -9 -8 5 -10 1 -5 -10 4 -12 3 -15 -5 -10 -8 5 -10
1 -5 -10 5 -13 3 -15 -7 -9 -8 5 -11 4 -6 -3 8 -13 -34 -103 -46 -96 -4 3 -5
-3 -1 -12 4 -12 3 -15 -5 -10 -8 5 -10 1 -5 -10 5 -13 3 -15 -7 -9 -9 5 -11 4
-6 -4 4 -6 -5 -43 -20 -82 -18 -46 -30 -65 -36 -57 -5 9 -8 9 -8 1 0 -6 -3
-20 -6 -30 -5 -15 -4 -16 6 -3 10 13 11 12 6 -3 -3 -10 -6 -24 -6 -30 0 -7 -4
-6 -10 3 -6 9 -10 10 -10 3 0 -6 -3 -20 -6 -30 -5 -15 -4 -16 6 -3 10 13 11
12 6 -3 -3 -10 -6 -24 -6 -30 0 -7 -4 -6 -10 3 -6 9 -10 10 -10 3 0 -6 -3 -20
-6 -30 -5 -15 -4 -15 5 -3 9 13 11 13 11 -1 0 -9 -7 -19 -15 -23 -8 -3 -15
-11 -15 -18 0 -9 3 -9 11 2 8 12 9 11 5 -5 -24 -90 -49 -216 -59 -297 -6 -54
-15 -98 -20 -98 -4 0 -6 -4 -2 -9 3 -5 1 -12 -5 -16 -5 -3 -9 -27 -8 -53 l1
-47 7 50 7 50 1 -50 2 -50 1036 3 c763 2 1040 -1 1050 -9 11 -9 14 -8 14 4 0
9 -5 19 -10 22 -6 4 -8 10 -6 14 3 4 -322 333 -722 732 l-727 724 720 -725
720 -725 -730 727 c-401 401 -730 728 -730 727 0 -1 -16 -18 -35 -38z"/>
<path d="M197 2483 c-4 -3 -6 -25 -5 -47 l1 -41 6 45 c5 37 8 23 18 -81 14
-140 50 -324 90 -457 14 -48 27 -97 27 -109 1 -11 4 -19 8 -17 3 2 11 -8 16
-24 5 -15 13 -36 18 -46 5 -13 4 -17 -3 -13 -7 5 -9 0 -6 -14 4 -13 8 -17 13
-9 4 7 12 0 19 -19 7 -16 10 -35 5 -42 -5 -8 -3 -9 6 -4 10 6 12 4 7 -9 -4 -9
-3 -15 1 -12 5 3 16 -12 26 -32 13 -29 13 -33 1 -18 -8 11 -15 16 -15 10 1
-12 30 -50 30 -38 0 5 5 1 11 -9 5 -9 7 -22 3 -29 -5 -7 -3 -8 6 -3 10 6 12 4
7 -9 -5 -11 -3 -15 5 -10 8 5 9 2 5 -9 -3 -9 -1 -19 5 -23 7 -5 8 -2 4 7 -4 8
0 5 8 -6 9 -11 14 -25 12 -31 -3 -7 2 -20 10 -31 14 -17 14 -16 4 7 -11 24
-10 24 5 5 8 -11 13 -25 11 -32 -3 -7 0 -15 6 -19 7 -4 8 -3 4 4 -15 25 3 10
20 -15 17 -27 17 -28 -1 -13 -14 11 -13 6 6 -22 13 -20 27 -34 31 -32 7 4 34
-37 29 -44 -2 -2 1 -7 5 -10 4 -4 4 -1 -1 7 -6 10 -4 12 4 7 7 -5 10 -14 7
-21 -3 -8 3 -19 12 -27 15 -11 16 -11 7 2 -5 9 -2 7 7 -3 10 -11 15 -24 11
-30 -3 -5 -1 -7 4 -4 13 8 45 -26 41 -44 -2 -7 4 -14 12 -14 8 0 14 -7 12 -14
-1 -7 2 -10 7 -7 11 7 32 -17 35 -41 2 -10 6 -16 10 -15 12 6 66 -50 59 -61
-3 -6 -1 -7 4 -4 6 4 35 -19 64 -51 29 -31 49 -50 44 -42 -4 8 4 4 18 -9 30
-27 37 -41 10 -20 -16 13 -17 12 -4 -3 7 -10 17 -16 21 -13 5 3 19 -5 32 -17
16 -15 17 -18 3 -8 -20 15 -20 15 -1 -7 10 -13 23 -20 28 -17 12 7 39 -16 32
-27 -3 -5 1 -6 9 -3 8 3 20 -3 28 -12 12 -15 12 -17 0 -9 -9 5 -12 4 -7 -3 4
-6 13 -9 20 -6 7 3 19 -3 27 -13 13 -16 12 -17 -3 -4 -10 7 -18 11 -18 8 0
-10 91 -69 97 -63 3 3 22 -4 42 -16 45 -27 64 -44 31 -29 -23 11 -24 11 -6 -3
10 -9 23 -13 28 -10 11 7 98 -43 98 -56 0 -5 6 -7 14 -4 8 3 23 -3 34 -14 11
-11 23 -18 26 -14 3 3 6 0 6 -6 0 -6 6 -9 14 -6 17 7 76 -22 76 -37 0 -6 5 -7
10 -4 5 3 10 1 10 -5 0 -7 6 -10 14 -7 8 3 17 1 20 -6 3 -9 5 -9 5 0 1 10 7
10 26 1 13 -6 22 -16 18 -21 -4 -6 0 -8 11 -4 22 9 188 -42 180 -54 -3 -5 0
-9 5 -9 6 0 11 4 11 10 0 5 7 7 15 4 8 -4 12 -11 8 -17 -4 -6 0 -8 10 -4 9 3
19 2 22 -3 4 -6 12 -10 18 -10 7 0 6 4 -3 10 -13 8 -12 10 3 10 10 0 20 -7 24
-16 4 -11 13 -13 36 -8 20 4 27 3 23 -5 -4 -6 0 -11 8 -11 9 0 16 4 16 9 0 4
12 6 26 3 19 -3 22 -7 12 -13 -8 -5 7 -7 37 -4 36 4 44 3 30 -4 -18 -9 -17
-10 8 -10 19 -1 26 3 21 11 -5 8 -2 9 10 5 10 -4 25 -7 34 -7 15 0 15 -2 2
-10 -11 -7 -4 -9 25 -9 36 1 37 2 15 10 -20 7 -17 8 15 4 22 -3 56 -5 75 -6
32 -1 33 -2 10 -9 -15 -5 23 -8 100 -8 79 0 116 3 100 8 -23 8 -22 8 10 8 19
0 53 3 75 6 30 4 34 4 15 -3 -22 -8 -21 -9 15 -10 26 0 35 2 27 8 -10 6 -7 10
12 13 15 3 29 1 32 -3 3 -5 15 -9 27 -8 21 0 21 1 2 8 -17 7 -15 9 13 13 17 2
32 1 32 -4 0 -4 10 -8 23 -8 16 0 18 3 9 9 -10 6 -8 10 10 14 34 10 57 7 33
-3 -15 -7 -16 -9 -4 -9 9 -1 22 5 28 13 15 18 59 26 64 12 2 -7 10 -4 21 7 19
19 31 23 21 7 -11 -17 17 -11 32 8 8 9 12 11 8 5 -8 -17 12 -17 22 0 4 8 18
16 31 19 12 4 20 2 16 -3 -10 -16 8 -9 23 9 8 9 11 11 7 3 -9 -19 37 -4 54 17
6 9 12 11 12 5 0 -6 9 -9 21 -6 13 4 17 8 9 13 -8 5 -4 9 9 13 12 3 19 1 15
-4 -10 -16 6 -9 27 12 12 12 29 19 40 16 10 -3 17 -1 13 4 -3 5 -3 9 -1 9 3 0
21 7 42 16 20 8 34 10 30 5 -3 -7 0 -8 9 -5 9 3 14 10 11 14 -7 11 24 22 37
13 7 -4 8 -1 3 7 -6 10 -4 12 9 7 11 -5 15 -3 10 5 -5 8 -2 9 10 5 11 -5 15
-3 10 5 -5 8 -2 9 10 5 11 -5 15 -3 10 5 -5 8 -2 9 10 5 9 -4 15 -3 11 3 -3 5
3 8 12 8 17 -1 93 39 93 49 0 2 -4 1 -10 -2 -6 -3 -10 -4 -10 -1 0 3 10 10 21
17 17 9 20 8 14 -2 -10 -15 -5 -12 95 54 41 28 95 71 120 96 24 25 38 37 30
26 -8 -11 5 1 30 28 25 27 53 49 63 51 21 3 188 166 181 177 -3 5 10 23 28 42
18 18 24 22 13 8 l-20 -26 27 24 c15 13 24 29 22 35 -3 7 6 21 18 32 l23 19
-20 -25 -20 -25 22 18 c12 11 19 24 17 31 -3 7 3 19 13 27 17 13 17 13 3 -6
-14 -18 -14 -19 2 -7 9 8 15 19 12 26 -3 7 3 19 13 27 17 13 17 13 3 -6 -14
-18 -14 -19 2 -7 9 8 15 19 12 27 -3 7 0 16 7 21 8 5 10 3 4 -6 -5 -8 -4 -11
3 -6 6 4 9 13 6 20 -3 8 0 17 7 22 8 5 10 3 4 -6 -5 -8 -4 -11 3 -6 6 4 9 13
6 20 -3 8 0 17 7 22 8 5 10 3 4 -6 -5 -8 -4 -11 3 -6 6 4 9 13 6 20 -3 8 0 17
7 22 8 5 10 3 4 -6 -5 -8 -4 -11 3 -6 6 4 9 13 6 20 -3 8 0 17 7 22 8 5 10 3
4 -6 -5 -9 -4 -11 4 -6 6 4 9 11 6 16 -3 5 1 23 10 40 18 34 31 41 15 8 -11
-22 -10 -22 4 -4 9 10 13 23 10 27 -7 12 89 198 99 192 6 -4 7 -1 3 6 -10 16
13 73 27 64 6 -3 7 -1 3 6 -10 16 3 53 16 45 7 -4 8 -2 4 4 -4 6 9 61 28 122
58 184 105 436 106 568 l0 52 -2353 0 c-1295 0 -2357 -3 -2360 -7z"/>
</g>
</svg>
